<svg width="24" height="24" viewBox="0 0 24 24" fill="none" xmlns="http://www.w3.org/2000/svg">
<g clip-path="url(#clip0_3010_26273)">
<path d="M23.1429 2.03906H0.857143C0.383036 2.03906 0 2.4221 0 2.89621V16.1819C0 16.656 0.383036 17.0391 0.857143 17.0391H11.0357V20.0391H6.42857C6.19286 20.0391 6 20.2319 6 20.4676V21.7533C6 21.8712 6.09643 21.9676 6.21429 21.9676H17.7857C17.9036 21.9676 18 21.8712 18 21.7533V20.4676C18 20.2319 17.8071 20.0391 17.5714 20.0391H12.9643V17.0391H23.1429C23.617 17.0391 24 16.656 24 16.1819V2.89621C24 2.4221 23.617 2.03906 23.1429 2.03906ZM22.0714 15.1105H1.92857V3.96763H22.0714V15.1105Z" fill="#0047BA"/>
</g>
<defs>
<clipPath id="clip0_3010_26273">
<rect width="24" height="24" fill="white"/>
</clipPath>
</defs>
</svg>
