<svg width="160" height="38" viewBox="0 0 160 38" fill="none" xmlns="http://www.w3.org/2000/svg">
<g clip-path="url(#clip0_9190_1554)">
<path d="M13.0883 7.85211L16.2416 0.252106H22.2266L26.1755 23.4778H20.159L18.1545 10.1095L14.1526 18.6949H13.0883H12.0229L8.02106 10.1095L6.01656 23.4778H0L3.94897 0.252106H9.93399L13.0883 7.85211Z" fill="#0047BA"/>
<path d="M40.2253 7.67636H45.84V23.4778H40.2253V21.7223C39.0328 23.2218 37.418 23.9705 35.382 23.9705C34.2302 23.9705 33.1709 23.7602 32.2043 23.3386C31.2376 22.918 30.3941 22.3278 29.6747 21.5669C28.9543 20.808 28.3947 19.914 27.9938 18.8869C27.5929 17.8598 27.3925 16.7413 27.3925 15.5293C27.3925 14.4007 27.5878 13.3268 27.9785 12.3109C28.3683 11.294 28.9136 10.4061 29.6137 9.64621C30.3127 8.88732 31.1461 8.28591 32.1127 7.84399C33.0793 7.40308 34.1488 7.18263 35.3209 7.18263C37.2959 7.18263 38.9311 7.8704 40.2264 9.24594V7.67535L40.2253 7.67636ZM33.1913 15.5314C33.1913 16.0454 33.2839 16.5229 33.469 16.9638C33.6542 17.4057 33.9056 17.7907 34.2251 18.1189C34.5435 18.448 34.9241 18.704 35.3667 18.8889C35.8093 19.0738 36.2865 19.1663 36.8014 19.1663C37.3163 19.1663 37.7619 19.0738 38.2046 18.8889C38.6462 18.704 39.0267 18.447 39.3462 18.1189C39.6657 17.7907 39.9221 17.4098 40.1175 16.979C40.3128 16.5483 40.4115 16.085 40.4115 15.5923C40.4115 15.0996 40.3128 14.6333 40.1175 14.1914C39.9221 13.7505 39.6657 13.3644 39.3462 13.0363C39.0277 12.7082 38.6462 12.4511 38.2046 12.2662C37.7619 12.0813 37.2949 11.9889 36.8014 11.9889C36.3079 11.9889 35.8093 12.0813 35.3667 12.2662C34.9241 12.4511 34.5435 12.7082 34.2251 13.0363C33.9056 13.3644 33.6542 13.7393 33.469 14.1609C33.2839 14.5815 33.1913 15.0386 33.1913 15.5314Z" fill="#0047BA"/>
<path d="M60.5106 12.7894C59.544 12.1331 58.5671 11.804 57.5802 11.804C57.0449 11.804 56.5464 11.8964 56.0834 12.0813C55.6204 12.2662 55.2144 12.5283 54.8644 12.8666C54.5144 13.2049 54.2427 13.6062 54.0473 14.0674C53.851 14.5297 53.7543 15.0488 53.7543 15.6228C53.7543 16.1968 53.852 16.6854 54.0473 17.1477C54.2427 17.6099 54.5103 18.0102 54.8491 18.3485C55.189 18.6868 55.594 18.9489 56.0681 19.1338C56.5413 19.3187 57.0449 19.4111 57.5802 19.4111C58.6292 19.4111 59.605 19.0515 60.5106 18.3332V23.0765C59.1329 23.6718 57.8264 23.9695 56.5921 23.9695C55.4403 23.9695 54.3445 23.7744 53.3066 23.3843C52.2677 22.9952 51.3519 22.4344 50.5603 21.706C49.7687 20.9776 49.1358 20.104 48.6637 19.088C48.1905 18.0711 47.9545 16.9374 47.9545 15.6848C47.9545 14.4321 48.1804 13.2872 48.6331 12.25C49.0849 11.2127 49.7026 10.3198 50.484 9.57001C51.2655 8.82027 52.1965 8.23511 53.2761 7.81351C54.3556 7.39293 55.5126 7.18263 56.7468 7.18263C58.1042 7.18263 59.3588 7.47013 60.5106 8.04514V12.7884V12.7894Z" fill="#0047BA"/>
<path d="M63.0675 7.67636H68.6516V10.2639C69.2479 9.32009 69.9785 8.59575 70.8423 8.09288C71.7062 7.59 72.7135 7.33806 73.8654 7.33806H74.3436C74.5186 7.33806 74.718 7.35939 74.9449 7.40003V12.7295C74.2042 12.3597 73.4024 12.1748 72.5385 12.1748C71.2422 12.1748 70.2705 12.5598 69.6233 13.3299C68.9752 14.0999 68.6516 15.2245 68.6516 16.7027V23.4798H63.0675V7.67636Z" fill="#0047BA"/>
<path d="M76.5964 15.4379C76.5964 14.2676 76.8325 13.1734 77.3056 12.1575C77.7777 11.1406 78.4361 10.2588 79.2796 9.50905C80.1231 8.75931 81.1254 8.16906 82.2874 7.73832C83.4494 7.30656 84.7192 7.09119 86.0979 7.09119C87.4767 7.09119 88.715 7.30148 89.877 7.72308C91.039 8.14367 92.0463 8.72883 92.9 9.47857C93.7537 10.2283 94.4171 11.1223 94.8903 12.1585C95.3634 13.1958 95.5995 14.3407 95.5995 15.5933C95.5995 16.8459 95.3573 17.9909 94.874 19.0281C94.3897 20.0653 93.7273 20.9583 92.8837 21.7081C92.0402 22.4578 91.0278 23.0379 89.8444 23.4483C88.6621 23.8587 87.381 24.0639 86.0033 24.0639C84.6256 24.0639 83.3914 23.8587 82.2395 23.4483C81.0877 23.0379 80.0956 22.4527 79.2623 21.6928C78.43 20.9329 77.7757 20.0247 77.3036 18.9671C76.8304 17.9096 76.5944 16.7332 76.5944 15.4399M82.4868 15.5009C82.4868 16.0352 82.5845 16.5229 82.7798 16.9638C82.9752 17.4057 83.2326 17.7907 83.5511 18.1189C83.8696 18.448 84.2501 18.704 84.6928 18.8889C85.1354 19.0738 85.6034 19.1663 86.0969 19.1663C86.5904 19.1663 87.0575 19.0738 87.5001 18.8889C87.9417 18.704 88.3222 18.447 88.6417 18.1189C88.9612 17.7907 89.2176 17.4057 89.413 16.9638C89.6084 16.5219 89.706 16.0454 89.706 15.5313C89.706 15.0173 89.6084 14.5723 89.413 14.1304C89.2176 13.6885 88.9602 13.3045 88.6417 12.9753C88.3232 12.6472 87.9427 12.3902 87.5001 12.2053C87.0575 12.0204 86.5904 11.9279 86.0969 11.9279C85.6034 11.9279 85.1354 12.0194 84.6928 12.2053C84.2501 12.3902 83.8696 12.6472 83.5511 12.9753C83.2316 13.3045 82.9752 13.6834 82.7798 14.1152C82.5845 14.5459 82.4868 15.0082 82.4868 15.5009Z" fill="#0047BA"/>
<path d="M103.24 31.3632H97.6559V7.67635H103.24V9.43184C104.433 7.93338 106.057 7.18364 108.115 7.18364C109.246 7.18364 110.301 7.40511 111.277 7.84601C112.254 8.28793 113.103 8.88833 113.822 9.64823C114.543 10.4081 115.103 11.3021 115.504 12.3282C115.905 13.3553 116.105 14.4535 116.105 15.6238C116.105 16.7941 115.905 17.8832 115.504 18.8889C115.103 19.8947 114.548 20.7785 113.837 21.5374C113.128 22.2973 112.29 22.8926 111.323 23.3244C110.356 23.7561 109.306 23.9715 108.176 23.9715C106.201 23.9715 104.556 23.2939 103.239 21.9387V31.3643L103.24 31.3632ZM110.274 15.6228C110.274 15.1301 110.187 14.6638 110.013 14.2218C109.838 13.7799 109.585 13.3949 109.257 13.0668C108.927 12.7386 108.542 12.4765 108.1 12.2815C107.657 12.0864 107.179 11.9889 106.665 11.9889C106.151 11.9889 105.708 12.0813 105.276 12.2662C104.845 12.4511 104.469 12.7081 104.151 13.0363C103.831 13.3644 103.574 13.7494 103.379 14.1914C103.184 14.6333 103.086 15.0996 103.086 15.5923C103.086 16.085 103.178 16.5473 103.364 16.978C103.549 17.4087 103.807 17.7846 104.135 18.1026C104.464 18.4216 104.85 18.6776 105.292 18.8727C105.735 19.0677 106.202 19.1652 106.696 19.1652C107.191 19.1652 107.653 19.0728 108.084 18.8879C108.516 18.703 108.891 18.446 109.211 18.1178C109.529 17.7897 109.787 17.4098 109.982 16.978C110.177 16.5473 110.275 16.0952 110.275 15.6228" fill="#0047BA"/>
<path d="M130.968 7.67636H136.584V23.4778H130.968V21.7223C129.776 23.2218 128.161 23.9705 126.125 23.9705C124.973 23.9705 123.914 23.7602 122.947 23.3386C121.981 22.918 121.137 22.3278 120.418 21.5669C119.697 20.808 119.138 19.914 118.737 18.8869C118.336 17.8598 118.135 16.7413 118.135 15.5293C118.135 14.4007 118.331 13.3268 118.721 12.3109C119.111 11.294 119.657 10.4061 120.357 9.64621C121.056 8.88732 121.889 8.28591 122.856 7.84399C123.822 7.40308 124.892 7.18263 126.064 7.18263C128.039 7.18263 129.674 7.8704 130.969 9.24594V7.67535L130.968 7.67636ZM123.934 15.5314C123.934 16.0454 124.027 16.5229 124.212 16.9638C124.397 17.4057 124.648 17.7907 124.967 18.1189C125.285 18.448 125.666 18.704 126.109 18.8889C126.55 19.0738 127.028 19.1663 127.543 19.1663C128.058 19.1663 128.505 19.0738 128.947 18.8889C129.389 18.704 129.77 18.447 130.089 18.1189C130.408 17.7907 130.665 17.4098 130.86 16.979C131.056 16.5483 131.153 16.085 131.153 15.5923C131.153 15.0996 131.056 14.6333 130.86 14.1914C130.665 13.7505 130.408 13.3644 130.089 13.0363C129.77 12.7082 129.389 12.4511 128.947 12.2662C128.505 12.0813 128.037 11.9889 127.543 11.9889C127.05 11.9889 126.55 12.0813 126.109 12.2662C125.666 12.4511 125.285 12.7082 124.967 13.0363C124.648 13.3644 124.396 13.7393 124.212 14.1609C124.027 14.5815 123.934 15.0386 123.934 15.5314Z" fill="#0047BA"/>
<path d="M146.425 21.322L138.774 7.67636H145.252L149.479 15.7772L153.583 7.67636H160L147.289 31.3633H141.025L146.425 21.322Z" fill="#0047BA"/>
<path d="M129.648 29.6464C129.648 28.3094 128.562 27.2265 127.224 27.2265C126.553 27.2265 125.946 27.4987 125.507 27.9386C125.504 27.9417 125.502 27.9457 125.499 27.9488C125.494 27.9539 125.489 27.96 125.484 27.9661C125.476 27.9742 125.469 27.9823 125.462 27.9894C125.451 27.9996 125.442 28.0097 125.432 28.0199C125.42 28.0321 125.408 28.0443 125.395 28.0565C125.381 28.0707 125.366 28.0839 125.352 28.0991C125.334 28.1154 125.317 28.1306 125.301 28.1469C125.281 28.1652 125.261 28.1814 125.243 28.2007C125.221 28.221 125.198 28.2383 125.178 28.2586C125.154 28.28 125.128 28.2983 125.105 28.3216C125.102 28.3247 125.099 28.3267 125.096 28.3287C125.06 28.3531 125.03 28.3846 124.995 28.411C124.956 28.4374 124.921 28.4699 124.884 28.4984C124.842 28.5258 124.804 28.5583 124.765 28.5878C124.721 28.6162 124.681 28.6487 124.638 28.6792C124.593 28.7087 124.55 28.7402 124.506 28.7727C124.458 28.8032 124.412 28.8347 124.367 28.8682C124.317 28.8997 124.268 28.9301 124.22 28.9647C124.168 28.9962 124.116 29.0267 124.067 29.0622C124.014 29.0947 123.959 29.1242 123.908 29.1597C123.852 29.1923 123.795 29.2207 123.742 29.2573C123.685 29.2898 123.624 29.3172 123.57 29.3538C123.513 29.3782 123.462 29.4127 123.408 29.4412C123.339 29.4696 123.277 29.5082 123.211 29.5427C123.14 29.5712 123.074 29.6088 123.007 29.6433C122.934 29.6718 122.867 29.7073 122.798 29.7419C122.723 29.7703 122.652 29.8038 122.581 29.8384C122.505 29.8658 122.43 29.8973 122.358 29.9328C122.28 29.9603 122.203 29.9897 122.129 30.0243C122.049 30.0517 121.969 30.0781 121.894 30.1127C121.812 30.1391 121.729 30.1624 121.652 30.198C121.568 30.2234 121.483 30.2447 121.404 30.2793C121.374 30.2874 121.345 30.2965 121.315 30.3067C121.224 30.325 121.137 30.3585 121.049 30.387C120.955 30.4042 120.866 30.4347 120.776 30.4632C120.68 30.4794 120.589 30.5068 120.497 30.5343C120.399 30.5495 120.306 30.5729 120.212 30.6003C120.112 30.6145 120.016 30.6348 119.921 30.6602C119.819 30.6734 119.721 30.6897 119.624 30.7141C119.521 30.7253 119.42 30.7385 119.321 30.7618C119.216 30.772 119.111 30.7801 119.01 30.8035C118.904 30.8116 118.797 30.8167 118.694 30.838C118.626 30.8421 118.56 30.8492 118.494 30.8583C118.484 30.8583 118.476 30.8553 118.468 30.8553C118.362 30.8553 118.262 30.8736 118.159 30.8868C118.136 30.8868 118.115 30.8797 118.093 30.8797C117.999 30.8797 117.91 30.8969 117.818 30.9071C117.781 30.9051 117.746 30.8959 117.709 30.8959C117.628 30.8959 117.55 30.9122 117.471 30.9203C117.419 30.9173 117.37 30.9051 117.317 30.9051C117.249 30.9051 117.185 30.9193 117.119 30.9254C117.052 30.9203 116.988 30.9051 116.919 30.9051C116.867 30.9051 116.818 30.9173 116.766 30.9203C116.686 30.9122 116.609 30.8959 116.528 30.8959C116.49 30.8959 116.455 30.9051 116.418 30.9071C116.326 30.8969 116.238 30.8797 116.143 30.8797C116.121 30.8797 116.099 30.8858 116.076 30.8868C115.973 30.8736 115.872 30.8553 115.767 30.8553C115.757 30.8553 115.75 30.8583 115.741 30.8583C115.675 30.8492 115.608 30.8421 115.54 30.838C115.438 30.8167 115.33 30.8116 115.223 30.8035C115.123 30.7801 115.018 30.772 114.913 30.7618C114.814 30.7374 114.712 30.7253 114.61 30.7141C114.513 30.6887 114.413 30.6724 114.313 30.6602C114.217 30.6338 114.121 30.6145 114.022 30.6003C113.928 30.5739 113.834 30.5495 113.737 30.5343C113.645 30.5068 113.554 30.4794 113.458 30.4632C113.368 30.4347 113.28 30.4052 113.185 30.387C113.097 30.3585 113.011 30.325 112.919 30.3067C112.889 30.2965 112.861 30.2884 112.83 30.2793C112.751 30.2447 112.665 30.2234 112.582 30.198C112.504 30.1635 112.421 30.1391 112.34 30.1127C112.263 30.0781 112.184 30.0517 112.105 30.0243C112.03 29.9897 111.954 29.9603 111.876 29.9328C111.803 29.8973 111.729 29.8668 111.653 29.8384C111.582 29.8038 111.511 29.7703 111.436 29.7419C111.367 29.7073 111.299 29.6718 111.226 29.6433C111.159 29.6088 111.093 29.5712 111.023 29.5427C110.958 29.5082 110.895 29.4696 110.826 29.4412C110.772 29.4127 110.721 29.3782 110.664 29.3538C110.61 29.3172 110.549 29.2898 110.492 29.2573C110.439 29.2207 110.382 29.1923 110.326 29.1597C110.275 29.1232 110.22 29.0937 110.166 29.0622C110.117 29.0267 110.065 28.9962 110.014 28.9647C109.967 28.9301 109.918 28.8997 109.868 28.8682C109.822 28.8347 109.777 28.8032 109.729 28.7727C109.685 28.7402 109.642 28.7087 109.596 28.6792C109.555 28.6477 109.514 28.6152 109.47 28.5878C109.431 28.5573 109.393 28.5248 109.351 28.4984C109.313 28.4699 109.279 28.4374 109.238 28.411C109.204 28.3846 109.173 28.3531 109.138 28.3287C109.134 28.3257 109.131 28.3237 109.128 28.3206C109.106 28.2983 109.08 28.28 109.056 28.2576C109.036 28.2373 109.012 28.22 108.991 28.1997C108.973 28.1814 108.952 28.1642 108.933 28.1459C108.917 28.1296 108.898 28.1144 108.882 28.0981C108.868 28.0839 108.853 28.0697 108.838 28.0555C108.826 28.0433 108.814 28.0311 108.802 28.0189C108.792 28.0087 108.782 27.9986 108.772 27.9884C108.764 27.9803 108.757 27.9721 108.75 27.965C108.745 27.96 108.74 27.9539 108.735 27.9478C108.732 27.9447 108.73 27.9407 108.726 27.9386C108.288 27.4987 107.68 27.2265 107.01 27.2265C105.671 27.2265 104.586 28.3094 104.586 29.6464C104.586 30.3148 104.858 30.9203 105.297 31.3582C105.299 31.3612 105.303 31.3632 105.305 31.3653C105.31 31.3704 105.316 31.3765 105.321 31.3815C105.329 31.3897 105.337 31.3978 105.346 31.4069C105.357 31.4181 105.369 31.4293 105.38 31.4394C105.394 31.4537 105.408 31.4669 105.423 31.4811C105.439 31.4984 105.457 31.5136 105.474 31.5299C105.494 31.5492 105.515 31.5664 105.535 31.5857C105.557 31.6081 105.581 31.6274 105.604 31.6487C105.628 31.6741 105.657 31.6944 105.682 31.7188C105.71 31.7462 105.74 31.7686 105.769 31.795C105.798 31.8245 105.834 31.8488 105.864 31.8773C105.975 31.989 106.097 32.0906 106.228 32.179C106.265 32.2064 106.298 32.239 106.336 32.2644C106.376 32.2938 106.412 32.3284 106.453 32.3548C106.496 32.3863 106.535 32.4208 106.579 32.4503C106.624 32.4838 106.667 32.5194 106.715 32.5498C106.763 32.5854 106.809 32.6209 106.859 32.6534C106.909 32.691 106.959 32.7266 107.013 32.7601C107.066 32.7987 107.12 32.8353 107.176 32.8698C107.232 32.9105 107.289 32.947 107.348 32.9826C107.406 33.0243 107.467 33.0608 107.529 33.0974C107.59 33.1411 107.654 33.1766 107.719 33.2152C107.782 33.2599 107.85 33.2955 107.919 33.3341C107.985 33.3798 108.056 33.4154 108.127 33.455C108.26 33.5464 108.403 33.6257 108.554 33.6897C108.628 33.7293 108.699 33.773 108.776 33.8055C108.853 33.8461 108.927 33.8888 109.007 33.9213C109.086 33.963 109.164 34.0046 109.247 34.0371C109.329 34.0798 109.411 34.1194 109.498 34.1519C109.582 34.1946 109.668 34.2332 109.757 34.2657C109.845 34.3094 109.933 34.346 110.026 34.3785C110.115 34.4221 110.208 34.4577 110.304 34.4902C110.396 34.5339 110.493 34.5684 110.592 34.5999C110.687 34.6436 110.787 34.6761 110.889 34.7076C110.986 34.7513 111.091 34.7818 111.195 34.8123C111.349 34.8783 111.509 34.9301 111.677 34.9636C111.782 34.9992 111.887 35.0337 111.998 35.054C112.106 35.0886 112.213 35.1211 112.327 35.1404C112.438 35.1749 112.55 35.2044 112.666 35.2227C112.78 35.2572 112.895 35.2836 113.015 35.3009C113.132 35.3344 113.25 35.3588 113.373 35.374C113.492 35.4066 113.616 35.4279 113.742 35.4421C113.864 35.4736 113.99 35.4919 114.119 35.5041C114.244 35.5346 114.375 35.5508 114.506 35.561C114.634 35.5904 114.767 35.6036 114.902 35.6108C115.064 35.6453 115.231 35.6636 115.403 35.6636C115.413 35.6636 115.421 35.6616 115.429 35.6605C115.542 35.6768 115.654 35.6951 115.772 35.6951C115.794 35.6951 115.815 35.689 115.839 35.688C115.942 35.7012 116.042 35.7195 116.148 35.7195C116.186 35.7195 116.22 35.7103 116.257 35.7083C116.349 35.7184 116.437 35.7357 116.532 35.7357C116.585 35.7357 116.634 35.7235 116.685 35.7205C116.765 35.7286 116.842 35.7449 116.924 35.7449C116.992 35.7449 117.056 35.7306 117.123 35.7245C117.19 35.7306 117.253 35.7449 117.321 35.7449C117.403 35.7449 117.48 35.7286 117.559 35.7205C117.611 35.7235 117.66 35.7357 117.713 35.7357C117.807 35.7357 117.896 35.7184 117.988 35.7083C118.024 35.7103 118.06 35.7195 118.097 35.7195C118.203 35.7195 118.303 35.7012 118.406 35.688C118.428 35.688 118.45 35.6951 118.473 35.6951C118.59 35.6951 118.703 35.6768 118.816 35.6605C118.825 35.6605 118.833 35.6636 118.842 35.6636C119.014 35.6636 119.181 35.6443 119.343 35.6108C119.479 35.6026 119.612 35.5894 119.74 35.561C119.872 35.5508 120.002 35.5346 120.127 35.5041C120.256 35.4919 120.381 35.4736 120.504 35.4421C120.63 35.4279 120.752 35.4066 120.873 35.374C120.996 35.3578 121.115 35.3344 121.231 35.3009C121.351 35.2836 121.466 35.2572 121.58 35.2227C121.697 35.2044 121.809 35.1749 121.919 35.1404C122.032 35.1211 122.14 35.0886 122.248 35.054C122.359 35.0327 122.464 34.9982 122.569 34.9636C122.737 34.9301 122.897 34.8783 123.051 34.8123C123.156 34.7818 123.26 34.7513 123.357 34.7076C123.459 34.6761 123.559 34.6446 123.654 34.5999C123.753 34.5684 123.85 34.5339 123.942 34.4902C124.038 34.4577 124.131 34.4221 124.22 34.3785C124.313 34.346 124.402 34.3084 124.489 34.2657C124.578 34.2332 124.664 34.1946 124.748 34.1519C124.835 34.1194 124.917 34.0788 124.999 34.0371C125.082 34.0046 125.16 33.963 125.239 33.9213C125.319 33.8888 125.393 33.8461 125.47 33.8055C125.548 33.773 125.618 33.7293 125.691 33.6897C125.843 33.6257 125.984 33.5464 126.119 33.455C126.189 33.4154 126.261 33.3798 126.326 33.3341C126.394 33.2955 126.463 33.2599 126.526 33.2152C126.591 33.1777 126.655 33.1411 126.716 33.0974C126.778 33.0608 126.839 33.0243 126.897 32.9826C126.956 32.947 127.013 32.9105 127.069 32.8698C127.125 32.8353 127.179 32.7987 127.232 32.7601C127.285 32.7266 127.335 32.691 127.386 32.6534C127.435 32.622 127.482 32.5854 127.53 32.5498C127.577 32.5194 127.62 32.4838 127.665 32.4503C127.71 32.4208 127.749 32.3873 127.792 32.3548C127.833 32.3273 127.869 32.2938 127.909 32.2644C127.947 32.239 127.98 32.2064 128.016 32.179C128.148 32.0906 128.27 31.989 128.381 31.8773C128.412 31.8488 128.447 31.8255 128.476 31.795C128.505 31.7686 128.535 31.7462 128.563 31.7188C128.588 31.6954 128.617 31.6741 128.641 31.6487C128.664 31.6274 128.688 31.6081 128.71 31.5857C128.731 31.5664 128.751 31.5492 128.77 31.5299C128.788 31.5136 128.805 31.4984 128.822 31.4811C128.837 31.4669 128.851 31.4537 128.865 31.4394C128.876 31.4283 128.887 31.4181 128.899 31.4069C128.907 31.3988 128.915 31.3907 128.924 31.3815C128.929 31.3765 128.934 31.3714 128.94 31.3653C128.943 31.3632 128.945 31.3602 128.948 31.3582C129.387 30.9203 129.659 30.3148 129.659 29.6453" fill="#0047BA"/>
</g>
<path d="M6.398 27.3641V29.2821H2.394V31.3541H5.39V33.2161H2.394V37.1921H0V27.3641H6.398Z" fill="#52C41A"/>
<path d="M11.4502 27.3641V37.1921H9.05625V27.3641H11.4502Z" fill="#52C41A"/>
<path d="M23.3772 37.1921H20.9832L16.9792 31.1301V37.1921H14.5852V27.3641H16.9792L20.9832 33.4541V27.3641H23.3772V37.1921Z" fill="#52C41A"/>
<path d="M32.6305 35.4561H28.9625L28.3745 37.1921H25.8685L29.4245 27.3641H32.1965L35.7525 37.1921H33.2185L32.6305 35.4561ZM32.0145 33.6081L30.7965 30.0101L29.5925 33.6081H32.0145Z" fill="#52C41A"/>
<path d="M47.0268 37.1921H44.6328L40.6288 31.1301V37.1921H38.2348V27.3641H40.6288L44.6328 33.4541V27.3641H47.0268V37.1921Z" fill="#52C41A"/>
<path d="M49.7561 32.2641C49.7561 31.2934 49.9661 30.4301 50.3861 29.6741C50.8061 28.9088 51.3894 28.3161 52.1361 27.8961C52.8921 27.4668 53.7461 27.2521 54.6981 27.2521C55.8648 27.2521 56.8634 27.5601 57.6941 28.1761C58.5248 28.7921 59.0801 29.6321 59.3601 30.6961H56.7281C56.5321 30.2854 56.2521 29.9728 55.8881 29.7581C55.5334 29.5434 55.1274 29.4361 54.6701 29.4361C53.9328 29.4361 53.3354 29.6928 52.8781 30.2061C52.4208 30.7194 52.1921 31.4054 52.1921 32.2641C52.1921 33.1228 52.4208 33.8088 52.8781 34.3221C53.3354 34.8354 53.9328 35.0921 54.6701 35.0921C55.1274 35.0921 55.5334 34.9848 55.8881 34.7701C56.2521 34.5554 56.5321 34.2428 56.7281 33.8321H59.3601C59.0801 34.8961 58.5248 35.7361 57.6941 36.3521C56.8634 36.9588 55.8648 37.2621 54.6981 37.2621C53.7461 37.2621 52.8921 37.0521 52.1361 36.6321C51.3894 36.2028 50.8061 35.6101 50.3861 34.8541C49.9661 34.0981 49.7561 33.2348 49.7561 32.2641Z" fill="#52C41A"/>
<path d="M64.6202 27.3641V37.1921H62.2262V27.3641H64.6202Z" fill="#52C41A"/>
<path d="M76.5471 37.1921H74.1531L70.1491 31.1301V37.1921H67.7551V27.3641H70.1491L74.1531 33.4541V27.3641H76.5471V37.1921Z" fill="#52C41A"/>
<path d="M86.2064 30.4721C86.0291 30.1454 85.7724 29.8981 85.4364 29.7301C85.1097 29.5528 84.7224 29.4641 84.2744 29.4641C83.4998 29.4641 82.8791 29.7208 82.4124 30.2341C81.9458 30.7381 81.7124 31.4148 81.7124 32.2641C81.7124 33.1694 81.9551 33.8788 82.4404 34.3921C82.9351 34.8961 83.6118 35.1481 84.4704 35.1481C85.0584 35.1481 85.5531 34.9988 85.9544 34.7001C86.3651 34.4014 86.6637 33.9721 86.8504 33.4121H83.8124V31.6481H89.0204V33.8741C88.8431 34.4714 88.5398 35.0268 88.1104 35.5401C87.6904 36.0534 87.1538 36.4688 86.5004 36.7861C85.8471 37.1034 85.1098 37.2621 84.2884 37.2621C83.3178 37.2621 82.4498 37.0521 81.6844 36.6321C80.9284 36.2028 80.3358 35.6101 79.9064 34.8541C79.4864 34.0981 79.2764 33.2348 79.2764 32.2641C79.2764 31.2934 79.4864 30.4301 79.9064 29.6741C80.3358 28.9088 80.9284 28.3161 81.6844 27.8961C82.4404 27.4668 83.3038 27.2521 84.2744 27.2521C85.4504 27.2521 86.4398 27.5368 87.2424 28.1061C88.0544 28.6754 88.5911 29.4641 88.8524 30.4721H86.2064Z" fill="#52C41A"/>
<defs>
<clipPath id="clip0_9190_1554">
<rect width="160" height="35.4958" fill="white" transform="translate(0 0.252106)"/>
</clipPath>
</defs>
</svg>
