<svg width="44" height="44" viewBox="0 0 44 44" fill="none" xmlns="http://www.w3.org/2000/svg">
<rect width="44" height="44" rx="10" fill="#1947BA"/>
<path fill-rule="evenodd" clip-rule="evenodd" d="M8.8542 9.47632C7.17806 10.5962 6.67966 12.6542 7.6163 14.5891C8.53828 16.4935 10.9377 17.2626 12.9015 16.283C14.1548 15.6577 14.7581 14.6988 14.8888 13.1245C15.0227 11.5068 14.586 10.4958 13.3425 9.54759C12.1959 8.67287 10.1062 8.63976 8.8542 9.47632ZM31.079 9.4513C29.8388 10.1703 29.2459 11.5043 29.4094 13.2064C29.6869 16.0952 32.3714 17.5229 35.0694 16.2168C37.6637 14.9609 37.8775 11.1027 35.4429 9.47632C34.3028 8.71457 32.3687 8.70345 31.079 9.4513ZM10.1975 25.1959C9.64981 25.4403 9.23355 25.8849 8.97652 26.5003C8.20997 28.3344 8.96692 29.6011 11.9593 31.4931C14.9454 33.3808 17.9661 34.1761 22.1486 34.1761C26.3414 34.1761 29.7721 33.2559 32.5542 31.3852C35.3901 29.478 36.0659 28.2841 35.3204 26.4995C34.5718 24.7076 32.4129 24.4023 30.7587 25.8546C28.5064 27.8322 24.6233 29.0385 21.2903 28.7961C18.0702 28.5616 16.2674 27.84 13.1151 25.5237C12.2568 24.8929 11.1538 24.7691 10.1975 25.1959Z" fill="#FFDD00"/>
</svg>
