<svg width="40" height="40" viewBox="0 0 40 40" fill="none" xmlns="http://www.w3.org/2000/svg">
<circle cx="20" cy="20" r="20" fill="#A1ADC0"/>
<path d="M29.2805 26.7361C28.7752 25.5392 28.0419 24.4521 27.1216 23.5352C26.204 22.6156 25.117 21.8825 23.9207 21.3762C23.9099 21.3709 23.8992 21.3682 23.8885 21.3628C25.5573 20.1575 26.6421 18.1941 26.6421 15.9789C26.6421 12.3093 23.6689 9.33606 19.9992 9.33606C16.3296 9.33606 13.3564 12.3093 13.3564 15.9789C13.3564 18.1941 14.4412 20.1575 16.1099 21.3655C16.0992 21.3709 16.0885 21.3736 16.0778 21.3789C14.8778 21.8852 13.801 22.6111 12.8769 23.5378C11.9574 24.4554 11.2242 25.5424 10.718 26.7387C10.2206 27.91 9.9524 29.1656 9.9278 30.4378C9.92709 30.4664 9.9321 30.4949 9.94255 30.5215C9.953 30.5481 9.96867 30.5724 9.98864 30.5928C10.0086 30.6133 10.0325 30.6296 10.0588 30.6407C10.0852 30.6518 10.1135 30.6575 10.1421 30.6575H11.7492C11.8671 30.6575 11.9608 30.5637 11.9635 30.4486C12.0171 28.3807 12.8474 26.4441 14.3153 24.9762C15.8341 23.4575 17.851 22.6218 19.9992 22.6218C22.1474 22.6218 24.1644 23.4575 25.6832 24.9762C27.151 26.4441 27.9814 28.3807 28.0349 30.4486C28.0376 30.5664 28.1314 30.6575 28.2492 30.6575H29.8564C29.885 30.6575 29.9133 30.6518 29.9396 30.6407C29.966 30.6296 29.9899 30.6133 30.0098 30.5928C30.0298 30.5724 30.0455 30.5481 30.0559 30.5215C30.0664 30.4949 30.0714 30.4664 30.0707 30.4378C30.0439 29.1575 29.7787 27.912 29.2805 26.7361ZM19.9992 20.5861C18.7698 20.5861 17.6126 20.1066 16.7421 19.2361C15.8716 18.3655 15.3921 17.2084 15.3921 15.9789C15.3921 14.7495 15.8716 13.5923 16.7421 12.7218C17.6126 11.8512 18.7698 11.3718 19.9992 11.3718C21.2287 11.3718 22.3858 11.8512 23.2564 12.7218C24.1269 13.5923 24.6064 14.7495 24.6064 15.9789C24.6064 17.2084 24.1269 18.3655 23.2564 19.2361C22.3858 20.1066 21.2287 20.5861 19.9992 20.5861Z" fill="white"/>
</svg>
