<svg width="160" height="38" viewBox="0 0 160 38" fill="none" xmlns="http://www.w3.org/2000/svg">
<g clip-path="url(#clip0_4627_40610)">
<path d="M13.0883 7.6L16.2416 0H22.2266L26.1755 23.2257H20.159L18.1545 9.85735L14.1526 18.4428H13.0883H12.0229L8.02106 9.85735L6.01656 23.2257H0L3.94897 0H9.93399L13.0883 7.6Z" fill="#0047BA"/>
<path d="M40.2255 7.42427H45.8401V23.2257H40.2255V21.4702C39.0329 22.9697 37.4181 23.7184 35.3821 23.7184C34.2303 23.7184 33.171 23.5081 32.2044 23.0865C31.2378 22.6659 30.3942 22.0757 29.6749 21.3148C28.9545 20.5559 28.3948 19.6619 27.9939 18.6348C27.593 17.6077 27.3926 16.4892 27.3926 15.2772C27.3926 14.1486 27.5879 13.0747 27.9787 12.0588C28.3684 11.0419 28.9138 10.154 29.6138 9.39412C30.3128 8.63523 31.1462 8.03382 32.1128 7.5919C33.0795 7.15099 34.1489 6.93054 35.321 6.93054C37.296 6.93054 38.9312 7.61831 40.2265 8.99385V7.42326L40.2255 7.42427ZM33.1914 15.2793C33.1914 15.7933 33.284 16.2708 33.4692 16.7117C33.6544 17.1536 33.9057 17.5386 34.2252 17.8668C34.5437 18.1959 34.9242 18.4519 35.3668 18.6368C35.8095 18.8217 36.2867 18.9142 36.8015 18.9142C37.3164 18.9142 37.7621 18.8217 38.2047 18.6368C38.6463 18.4519 39.0268 18.1949 39.3463 17.8668C39.6658 17.5386 39.9222 17.1577 40.1176 16.7269C40.313 16.2962 40.4117 15.8329 40.4117 15.3402C40.4117 14.8475 40.313 14.3812 40.1176 13.9393C39.9222 13.4984 39.6658 13.1123 39.3463 12.7842C39.0279 12.4561 38.6463 12.199 38.2047 12.0141C37.7621 11.8292 37.295 11.7368 36.8015 11.7368C36.308 11.7368 35.8095 11.8292 35.3668 12.0141C34.9242 12.199 34.5437 12.4561 34.2252 12.7842C33.9057 13.1123 33.6544 13.4872 33.4692 13.9088C33.284 14.3294 33.1914 14.7866 33.1914 15.2793Z" fill="#0047BA"/>
<path d="M60.5102 12.5373C59.5436 11.8811 58.5668 11.5519 57.5798 11.5519C57.0446 11.5519 56.546 11.6444 56.083 11.8292C55.62 12.0141 55.2141 12.2762 54.864 12.6145C54.514 12.9528 54.2423 13.3541 54.047 13.8153C53.8506 14.2776 53.7539 14.7967 53.7539 15.3707C53.7539 15.9447 53.8516 16.4333 54.047 16.8956C54.2423 17.3578 54.5099 17.7581 54.8488 18.0964C55.1886 18.4347 55.5936 18.6968 56.0678 18.8817C56.5409 19.0666 57.0446 19.159 57.5798 19.159C58.6288 19.159 59.6046 18.7994 60.5102 18.0811V22.8244C59.1325 23.4197 57.826 23.7174 56.5918 23.7174C55.44 23.7174 54.3441 23.5223 53.3062 23.1322C52.2673 22.7431 51.3516 22.1824 50.56 21.454C49.7683 20.7255 49.1354 19.8519 48.6633 18.836C48.1902 17.819 47.9541 16.6853 47.9541 15.4327C47.9541 14.1801 48.18 13.0351 48.6328 11.9979C49.0846 10.9606 49.7022 10.0677 50.4836 9.31792C51.2651 8.56818 52.1961 7.98302 53.2757 7.56142C54.3553 7.14083 55.5122 6.93054 56.7464 6.93054C58.1038 6.93054 59.3584 7.21804 60.5102 7.79305V12.5363V12.5373Z" fill="#0047BA"/>
<path d="M63.0674 7.42423H68.6515V10.0118C69.2478 9.06797 69.9783 8.34363 70.8422 7.84076C71.7061 7.33788 72.7134 7.08594 73.8652 7.08594H74.3435C74.5185 7.08594 74.7179 7.10727 74.9448 7.14791V12.4774C74.2041 12.1076 73.4023 11.9227 72.5384 11.9227C71.2421 11.9227 70.2704 12.3077 69.6232 13.0778C68.9751 13.8478 68.6515 14.9724 68.6515 16.4506V23.2277H63.0674V7.42423Z" fill="#0047BA"/>
<path d="M76.5968 15.1858C76.5968 14.0155 76.8328 12.9213 77.306 11.9054C77.7781 10.8885 78.4364 10.0067 79.2799 9.25697C80.1235 8.50723 81.1257 7.91699 82.2877 7.48624C83.4497 7.05448 84.7196 6.83911 86.0983 6.83911C87.477 6.83911 88.7154 7.0494 89.8774 7.47101C91.0394 7.89159 92.0467 8.47675 92.9004 9.22649C93.7541 9.97623 94.4175 10.8702 94.8906 11.9065C95.3638 12.9437 95.5999 14.0886 95.5999 15.3412C95.5999 16.5939 95.3577 17.7388 94.8744 18.776C94.39 19.8133 93.7276 20.7062 92.8841 21.456C92.0406 22.2057 91.0282 22.7858 89.8448 23.1962C88.6624 23.6067 87.3814 23.8119 86.0037 23.8119C84.626 23.8119 83.3917 23.6067 82.2399 23.1962C81.0881 22.7858 80.096 22.2006 79.2626 21.4407C78.4303 20.6808 77.7761 19.7726 77.3039 18.7151C76.8308 17.6575 76.5947 16.4811 76.5947 15.1878M82.4871 15.2488C82.4871 15.7832 82.5848 16.2708 82.7802 16.7117C82.9756 17.1536 83.233 17.5386 83.5515 17.8668C83.87 18.1959 84.2505 18.4519 84.6931 18.6368C85.1357 18.8217 85.6038 18.9142 86.0973 18.9142C86.5908 18.9142 87.0578 18.8217 87.5004 18.6368C87.942 18.4519 88.3226 18.1949 88.6421 17.8668C88.9616 17.5386 89.218 17.1536 89.4134 16.7117C89.6087 16.2698 89.7064 15.7933 89.7064 15.2793C89.7064 14.7652 89.6087 14.3203 89.4134 13.8783C89.218 13.4364 88.9606 13.0524 88.6421 12.7232C88.3236 12.3951 87.9431 12.1381 87.5004 11.9532C87.0578 11.7683 86.5908 11.6758 86.0973 11.6758C85.6038 11.6758 85.1357 11.7673 84.6931 11.9532C84.2505 12.1381 83.87 12.3951 83.5515 12.7232C83.232 13.0524 82.9756 13.4313 82.7802 13.8631C82.5848 14.2938 82.4871 14.7561 82.4871 15.2488Z" fill="#0047BA"/>
<path d="M103.24 31.1111H97.6562V7.42423H103.24V9.17972C104.433 7.68126 106.058 6.93152 108.115 6.93152C109.247 6.93152 110.301 7.15299 111.278 7.59389C112.255 8.03581 113.103 8.63621 113.823 9.39611C114.543 10.156 115.104 11.05 115.504 12.0761C115.905 13.1032 116.106 14.2014 116.106 15.3717C116.106 16.542 115.905 17.6311 115.504 18.6368C115.104 19.6426 114.548 20.5264 113.838 21.2853C113.129 22.0452 112.29 22.6405 111.323 23.0723C110.357 23.504 109.307 23.7194 108.176 23.7194C106.201 23.7194 104.556 23.0418 103.239 21.6866V31.1121L103.24 31.1111ZM110.274 15.3707C110.274 14.8779 110.187 14.4116 110.013 13.9697C109.838 13.5278 109.586 13.1428 109.257 12.8146C108.927 12.4865 108.543 12.2244 108.1 12.0293C107.657 11.8343 107.179 11.7368 106.665 11.7368C106.151 11.7368 105.709 11.8292 105.276 12.0141C104.845 12.199 104.47 12.456 104.151 12.7842C103.832 13.1123 103.574 13.4973 103.38 13.9392C103.184 14.3812 103.087 14.8475 103.087 15.3402C103.087 15.8329 103.178 16.2951 103.365 16.7259C103.55 17.1566 103.807 17.5325 104.136 17.8505C104.464 18.1695 104.85 18.4255 105.293 18.6205C105.735 18.8156 106.202 18.9131 106.697 18.9131C107.191 18.9131 107.653 18.8207 108.085 18.6358C108.516 18.4509 108.892 18.1939 109.211 17.8657C109.53 17.5376 109.787 17.1576 109.982 16.7259C110.178 16.2951 110.275 15.8431 110.275 15.3707" fill="#0047BA"/>
<path d="M130.969 7.42427H136.584V23.2257H130.969V21.4702C129.776 22.9697 128.161 23.7184 126.125 23.7184C124.973 23.7184 123.914 23.5081 122.948 23.0865C121.981 22.6659 121.137 22.0757 120.418 21.3148C119.698 20.5559 119.138 19.6619 118.737 18.6348C118.336 17.6077 118.136 16.4892 118.136 15.2772C118.136 14.1486 118.331 13.0747 118.722 12.0588C119.112 11.0419 119.657 10.154 120.357 9.39412C121.056 8.63523 121.889 8.03382 122.856 7.5919C123.823 7.15099 124.892 6.93054 126.064 6.93054C128.039 6.93054 129.674 7.61831 130.97 8.99385V7.42326L130.969 7.42427ZM123.935 15.2793C123.935 15.7933 124.027 16.2708 124.212 16.7117C124.398 17.1536 124.649 17.5386 124.967 17.8668C125.286 18.1959 125.666 18.4519 126.109 18.6368C126.551 18.8217 127.029 18.9142 127.544 18.9142C128.059 18.9142 128.505 18.8217 128.948 18.6368C129.389 18.4519 129.77 18.1949 130.089 17.8668C130.408 17.5386 130.665 17.1577 130.861 16.7269C131.056 16.2962 131.154 15.8329 131.154 15.3402C131.154 14.8475 131.056 14.3812 130.861 13.9393C130.665 13.4984 130.408 13.1123 130.089 12.7842C129.77 12.4561 129.389 12.199 128.948 12.0141C128.505 11.8292 128.037 11.7368 127.544 11.7368C127.05 11.7368 126.551 11.8292 126.109 12.0141C125.666 12.199 125.286 12.4561 124.967 12.7842C124.649 13.1123 124.397 13.4872 124.212 13.9088C124.027 14.3294 123.935 14.7866 123.935 15.2793Z" fill="#0047BA"/>
<path d="M146.425 21.0699L138.773 7.42419H145.252L149.479 15.525L153.582 7.42419H160L147.289 31.1111H141.025L146.425 21.0699Z" fill="#0047BA"/>
<path d="M129.647 29.3943C129.647 28.0573 128.562 26.9744 127.224 26.9744C126.553 26.9744 125.946 27.2466 125.507 27.6865C125.504 27.6896 125.502 27.6936 125.499 27.6967C125.494 27.7018 125.489 27.7079 125.484 27.7139C125.475 27.7221 125.468 27.7302 125.461 27.7373C125.451 27.7475 125.442 27.7576 125.432 27.7678C125.42 27.78 125.407 27.7922 125.395 27.8044C125.381 27.8186 125.366 27.8318 125.351 27.847C125.334 27.8633 125.317 27.8785 125.3 27.8948C125.281 27.9131 125.261 27.9293 125.242 27.9486C125.221 27.9689 125.198 27.9862 125.177 28.0065C125.154 28.0279 125.128 28.0461 125.105 28.0695C125.102 28.0726 125.099 28.0746 125.096 28.0766C125.059 28.101 125.03 28.1325 124.995 28.1589C124.956 28.1853 124.921 28.2178 124.883 28.2463C124.842 28.2737 124.804 28.3062 124.764 28.3357C124.721 28.3641 124.681 28.3966 124.638 28.4271C124.592 28.4566 124.55 28.4881 124.506 28.5206C124.458 28.5511 124.412 28.5825 124.366 28.6161C124.317 28.6476 124.268 28.678 124.22 28.7126C124.168 28.7441 124.116 28.7746 124.067 28.8101C124.013 28.8426 123.958 28.8721 123.908 28.9076C123.852 28.9401 123.795 28.9686 123.742 29.0052C123.685 29.0377 123.624 29.0651 123.57 29.1017C123.513 29.1261 123.462 29.1606 123.408 29.189C123.339 29.2175 123.277 29.2561 123.211 29.2906C123.139 29.3191 123.074 29.3567 123.007 29.3912C122.934 29.4197 122.867 29.4552 122.797 29.4898C122.723 29.5182 122.652 29.5517 122.581 29.5863C122.504 29.6137 122.43 29.6452 122.358 29.6807C122.279 29.7082 122.203 29.7376 122.129 29.7722C122.049 29.7996 121.969 29.826 121.894 29.8606C121.811 29.887 121.729 29.9103 121.652 29.9459C121.568 29.9713 121.483 29.9926 121.403 30.0272C121.374 30.0353 121.344 30.0444 121.315 30.0546C121.223 30.0729 121.137 30.1064 121.048 30.1349C120.955 30.1521 120.866 30.1826 120.776 30.211C120.68 30.2273 120.588 30.2547 120.497 30.2822C120.399 30.2974 120.306 30.3208 120.212 30.3482C120.112 30.3624 120.016 30.3827 119.921 30.4081C119.819 30.4213 119.72 30.4376 119.624 30.462C119.521 30.4732 119.419 30.4864 119.321 30.5097C119.216 30.5199 119.111 30.528 119.01 30.5514C118.903 30.5595 118.797 30.5646 118.694 30.5859C118.626 30.59 118.559 30.5971 118.493 30.6062C118.484 30.6062 118.476 30.6032 118.468 30.6032C118.362 30.6032 118.261 30.6215 118.159 30.6347C118.136 30.6347 118.115 30.6276 118.092 30.6276C117.999 30.6276 117.909 30.6448 117.818 30.655C117.781 30.653 117.745 30.6438 117.709 30.6438C117.627 30.6438 117.55 30.6601 117.471 30.6682C117.419 30.6652 117.37 30.653 117.317 30.653C117.249 30.653 117.185 30.6672 117.119 30.6733C117.052 30.6682 116.987 30.653 116.919 30.653C116.866 30.653 116.817 30.6652 116.766 30.6682C116.686 30.6601 116.609 30.6438 116.527 30.6438C116.49 30.6438 116.455 30.653 116.418 30.655C116.326 30.6448 116.237 30.6276 116.143 30.6276C116.12 30.6276 116.099 30.6337 116.076 30.6347C115.973 30.6215 115.872 30.6032 115.766 30.6032C115.757 30.6032 115.75 30.6062 115.741 30.6062C115.675 30.5971 115.608 30.59 115.539 30.5859C115.438 30.5646 115.33 30.5595 115.223 30.5514C115.122 30.528 115.017 30.5199 114.913 30.5097C114.814 30.4853 114.712 30.4732 114.609 30.462C114.513 30.4366 114.413 30.4203 114.312 30.4081C114.217 30.3817 114.121 30.3624 114.021 30.3482C113.928 30.3218 113.834 30.2974 113.736 30.2822C113.645 30.2547 113.553 30.2273 113.458 30.211C113.368 30.1826 113.28 30.1531 113.185 30.1349C113.096 30.1064 113.011 30.0729 112.918 30.0546C112.889 30.0444 112.86 30.0363 112.83 30.0272C112.75 29.9926 112.665 29.9713 112.582 29.9459C112.504 29.9114 112.421 29.887 112.339 29.8606C112.263 29.826 112.184 29.7996 112.104 29.7722C112.03 29.7376 111.954 29.7082 111.875 29.6807C111.803 29.6452 111.729 29.6147 111.653 29.5863C111.581 29.5517 111.511 29.5182 111.436 29.4898C111.367 29.4552 111.298 29.4197 111.226 29.3912C111.159 29.3567 111.093 29.3191 111.023 29.2906C110.958 29.2561 110.895 29.2175 110.825 29.189C110.771 29.1606 110.721 29.1261 110.664 29.1017C110.61 29.0651 110.549 29.0377 110.492 29.0052C110.439 28.9686 110.382 28.9401 110.326 28.9076C110.275 28.8711 110.22 28.8416 110.166 28.8101C110.117 28.7746 110.065 28.7441 110.013 28.7126C109.967 28.678 109.918 28.6476 109.868 28.6161C109.822 28.5825 109.776 28.5511 109.728 28.5206C109.685 28.4881 109.642 28.4566 109.596 28.4271C109.554 28.3956 109.514 28.3631 109.47 28.3357C109.43 28.3052 109.393 28.2727 109.351 28.2463C109.312 28.2178 109.279 28.1853 109.238 28.1589C109.203 28.1325 109.173 28.101 109.137 28.0766C109.134 28.0736 109.131 28.0715 109.128 28.0685C109.106 28.0461 109.079 28.0279 109.056 28.0055C109.036 27.9852 109.012 27.9679 108.991 27.9476C108.972 27.9293 108.952 27.912 108.933 27.8938C108.916 27.8775 108.898 27.8623 108.882 27.846C108.868 27.8318 108.852 27.8176 108.838 27.8033C108.826 27.7912 108.814 27.779 108.802 27.7668C108.791 27.7566 108.782 27.7465 108.772 27.7363C108.764 27.7282 108.757 27.72 108.75 27.7129C108.745 27.7079 108.739 27.7018 108.734 27.6957C108.731 27.6926 108.729 27.6885 108.726 27.6865C108.288 27.2466 107.68 26.9744 107.01 26.9744C105.671 26.9744 104.586 28.0573 104.586 29.3943C104.586 30.0627 104.858 30.6682 105.297 31.1061C105.299 31.1091 105.302 31.1111 105.304 31.1132C105.309 31.1183 105.315 31.1243 105.321 31.1294C105.329 31.1376 105.337 31.1457 105.346 31.1548C105.357 31.166 105.368 31.1772 105.38 31.1873C105.394 31.2016 105.408 31.2148 105.422 31.229C105.439 31.2463 105.457 31.2615 105.474 31.2777C105.494 31.2971 105.515 31.3143 105.534 31.3336C105.557 31.356 105.581 31.3753 105.603 31.3966C105.628 31.422 105.656 31.4423 105.682 31.4667C105.709 31.4941 105.74 31.5165 105.768 31.5429C105.798 31.5724 105.833 31.5967 105.864 31.6252C105.975 31.7369 106.097 31.8385 106.228 31.9269C106.265 31.9543 106.297 31.9869 106.336 32.0122C106.376 32.0417 106.411 32.0763 106.453 32.1027C106.496 32.1342 106.534 32.1687 106.579 32.1982C106.624 32.2317 106.667 32.2672 106.715 32.2977C106.762 32.3333 106.809 32.3688 106.859 32.4013C106.909 32.4389 106.959 32.4745 107.013 32.508C107.066 32.5466 107.12 32.5832 107.176 32.6177C107.231 32.6584 107.288 32.6949 107.347 32.7305C107.405 32.7721 107.467 32.8087 107.529 32.8453C107.59 32.889 107.654 32.9245 107.719 32.9631C107.782 33.0078 107.85 33.0434 107.918 33.082C107.984 33.1277 108.056 33.1633 108.127 33.2029C108.26 33.2943 108.403 33.3736 108.554 33.4376C108.628 33.4772 108.699 33.5209 108.776 33.5534C108.852 33.594 108.927 33.6367 109.007 33.6692C109.085 33.7108 109.164 33.7525 109.247 33.785C109.329 33.8277 109.411 33.8673 109.497 33.8998C109.582 33.9425 109.667 33.9811 109.757 34.0136C109.844 34.0573 109.933 34.0938 110.026 34.1264C110.115 34.17 110.208 34.2056 110.303 34.2381C110.396 34.2818 110.493 34.3163 110.591 34.3478C110.687 34.3915 110.787 34.424 110.888 34.4555C110.986 34.4992 111.091 34.5297 111.195 34.5601C111.348 34.6262 111.509 34.678 111.677 34.7115C111.782 34.7471 111.887 34.7816 111.998 34.8019C112.105 34.8365 112.213 34.869 112.327 34.8883C112.438 34.9228 112.55 34.9523 112.666 34.9706C112.78 35.0051 112.895 35.0315 113.015 35.0488C113.132 35.0823 113.25 35.1067 113.373 35.1219C113.492 35.1545 113.615 35.1758 113.742 35.19C113.864 35.2215 113.99 35.2398 114.119 35.252C114.244 35.2825 114.374 35.2987 114.506 35.3089C114.634 35.3383 114.767 35.3515 114.901 35.3586C115.063 35.3932 115.231 35.4115 115.403 35.4115C115.412 35.4115 115.42 35.4094 115.429 35.4084C115.542 35.4247 115.653 35.443 115.771 35.443C115.794 35.443 115.815 35.4369 115.839 35.4359C115.941 35.4491 116.042 35.4674 116.148 35.4674C116.186 35.4674 116.22 35.4582 116.257 35.4562C116.348 35.4663 116.437 35.4836 116.532 35.4836C116.584 35.4836 116.633 35.4714 116.685 35.4684C116.765 35.4765 116.842 35.4927 116.923 35.4927C116.991 35.4927 117.056 35.4785 117.123 35.4724C117.19 35.4785 117.253 35.4927 117.321 35.4927C117.403 35.4927 117.48 35.4765 117.559 35.4684C117.611 35.4714 117.66 35.4836 117.713 35.4836C117.806 35.4836 117.896 35.4663 117.988 35.4562C118.024 35.4582 118.06 35.4674 118.096 35.4674C118.202 35.4674 118.303 35.4491 118.406 35.4359C118.428 35.4359 118.45 35.443 118.473 35.443C118.59 35.443 118.703 35.4247 118.816 35.4084C118.825 35.4084 118.833 35.4115 118.841 35.4115C119.013 35.4115 119.181 35.3922 119.343 35.3586C119.478 35.3505 119.612 35.3373 119.74 35.3089C119.872 35.2987 120.001 35.2825 120.126 35.252C120.256 35.2398 120.381 35.2215 120.504 35.19C120.63 35.1758 120.752 35.1545 120.872 35.1219C120.995 35.1057 121.114 35.0823 121.23 35.0488C121.35 35.0315 121.465 35.0051 121.579 34.9706C121.696 34.9523 121.808 34.9228 121.918 34.8883C122.032 34.869 122.14 34.8365 122.248 34.8019C122.359 34.7806 122.464 34.7461 122.568 34.7115C122.736 34.678 122.897 34.6262 123.051 34.5601C123.156 34.5297 123.259 34.4992 123.357 34.4555C123.459 34.424 123.559 34.3925 123.654 34.3478C123.753 34.3163 123.85 34.2818 123.942 34.2381C124.038 34.2056 124.13 34.17 124.22 34.1264C124.312 34.0938 124.402 34.0563 124.489 34.0136C124.578 33.9811 124.664 33.9425 124.748 33.8998C124.834 33.8673 124.917 33.8267 124.998 33.785C125.082 33.7525 125.16 33.7108 125.238 33.6692C125.319 33.6367 125.393 33.594 125.469 33.5534C125.548 33.5209 125.618 33.4772 125.691 33.4376C125.843 33.3736 125.984 33.2943 126.119 33.2029C126.189 33.1633 126.261 33.1277 126.326 33.082C126.393 33.0434 126.462 33.0078 126.526 32.9631C126.591 32.9256 126.655 32.889 126.716 32.8453C126.778 32.8087 126.839 32.7721 126.897 32.7305C126.956 32.6949 127.013 32.6584 127.069 32.6177C127.125 32.5832 127.179 32.5466 127.232 32.508C127.285 32.4745 127.335 32.4389 127.385 32.4013C127.435 32.3698 127.482 32.3333 127.53 32.2977C127.577 32.2672 127.619 32.2317 127.665 32.1982C127.71 32.1687 127.749 32.1352 127.791 32.1027C127.833 32.0752 127.869 32.0417 127.908 32.0122C127.947 31.9869 127.98 31.9543 128.016 31.9269C128.147 31.8385 128.27 31.7369 128.38 31.6252C128.412 31.5967 128.447 31.5734 128.476 31.5429C128.505 31.5165 128.535 31.4941 128.563 31.4667C128.588 31.4433 128.617 31.422 128.641 31.3966C128.663 31.3753 128.688 31.356 128.71 31.3336C128.731 31.3143 128.751 31.2971 128.77 31.2777C128.788 31.2615 128.805 31.2463 128.822 31.229C128.836 31.2148 128.851 31.2016 128.865 31.1873C128.876 31.1762 128.887 31.166 128.898 31.1548C128.907 31.1467 128.915 31.1386 128.924 31.1294C128.929 31.1243 128.934 31.1193 128.94 31.1132C128.943 31.1111 128.945 31.1081 128.947 31.1061C129.387 30.6682 129.659 30.0627 129.659 29.3932" fill="#0047BA"/>
</g>
<path d="M6.398 27.112V29.03H2.394V31.102H5.39V32.964H2.394V36.94H0V27.112H6.398Z" fill="#A1ADC0"/>
<path d="M11.4502 27.112V36.94H9.05625V27.112H11.4502Z" fill="#A1ADC0"/>
<path d="M23.3772 36.94H20.9832L16.9792 30.878V36.94H14.5852V27.112H16.9792L20.9832 33.202V27.112H23.3772V36.94Z" fill="#A1ADC0"/>
<path d="M32.6305 35.204H28.9625L28.3745 36.94H25.8685L29.4245 27.112H32.1965L35.7525 36.94H33.2185L32.6305 35.204ZM32.0145 33.356L30.7965 29.758L29.5925 33.356H32.0145Z" fill="#A1ADC0"/>
<path d="M47.0268 36.94H44.6328L40.6288 30.878V36.94H38.2348V27.112H40.6288L44.6328 33.202V27.112H47.0268V36.94Z" fill="#A1ADC0"/>
<path d="M49.7561 32.012C49.7561 31.0413 49.9661 30.178 50.3861 29.422C50.8061 28.6567 51.3894 28.064 52.1361 27.644C52.8921 27.2147 53.7461 27 54.6981 27C55.8648 27 56.8634 27.308 57.6941 27.924C58.5248 28.54 59.0801 29.38 59.3601 30.444H56.7281C56.5321 30.0333 56.2521 29.7207 55.8881 29.506C55.5334 29.2913 55.1274 29.184 54.6701 29.184C53.9328 29.184 53.3354 29.4407 52.8781 29.954C52.4208 30.4673 52.1921 31.1533 52.1921 32.012C52.1921 32.8707 52.4208 33.5567 52.8781 34.07C53.3354 34.5833 53.9328 34.84 54.6701 34.84C55.1274 34.84 55.5334 34.7327 55.8881 34.518C56.2521 34.3033 56.5321 33.9907 56.7281 33.58H59.3601C59.0801 34.644 58.5248 35.484 57.6941 36.1C56.8634 36.7067 55.8648 37.01 54.6981 37.01C53.7461 37.01 52.8921 36.8 52.1361 36.38C51.3894 35.9507 50.8061 35.358 50.3861 34.602C49.9661 33.846 49.7561 32.9827 49.7561 32.012Z" fill="#A1ADC0"/>
<path d="M64.6202 27.112V36.94H62.2262V27.112H64.6202Z" fill="#A1ADC0"/>
<path d="M76.5471 36.94H74.1531L70.1491 30.878V36.94H67.7551V27.112H70.1491L74.1531 33.202V27.112H76.5471V36.94Z" fill="#A1ADC0"/>
<path d="M86.2064 30.22C86.0291 29.8933 85.7724 29.646 85.4364 29.478C85.1098 29.3007 84.7224 29.212 84.2744 29.212C83.4998 29.212 82.8791 29.4687 82.4124 29.982C81.9458 30.486 81.7124 31.1627 81.7124 32.012C81.7124 32.9173 81.9551 33.6267 82.4404 34.14C82.9351 34.644 83.6118 34.896 84.4704 34.896C85.0584 34.896 85.5531 34.7467 85.9544 34.448C86.3651 34.1493 86.6638 33.72 86.8504 33.16H83.8124V31.396H89.0204V33.622C88.8431 34.2193 88.5398 34.7747 88.1104 35.288C87.6904 35.8013 87.1538 36.2167 86.5004 36.534C85.8471 36.8513 85.1098 37.01 84.2884 37.01C83.3178 37.01 82.4498 36.8 81.6844 36.38C80.9284 35.9507 80.3358 35.358 79.9064 34.602C79.4864 33.846 79.2764 32.9827 79.2764 32.012C79.2764 31.0413 79.4864 30.178 79.9064 29.422C80.3358 28.6567 80.9284 28.064 81.6844 27.644C82.4404 27.2147 83.3038 27 84.2744 27C85.4504 27 86.4397 27.2847 87.2424 27.854C88.0544 28.4233 88.5911 29.212 88.8524 30.22H86.2064Z" fill="#A1ADC0"/>
<defs>
<clipPath id="clip0_4627_40610">
<rect width="160" height="35.4958" fill="white"/>
</clipPath>
</defs>
</svg>
