<svg width="257" height="74" viewBox="0 0 257 74" fill="none" xmlns="http://www.w3.org/2000/svg">
<g clip-path="url(#clip0_185_43588)">
<mask id="mask0_185_43588" style="mask-type:luminance" maskUnits="userSpaceOnUse" x="0" y="0" width="257" height="58">
<path d="M257 0H0V57.1019H257V0Z" fill="white"/>
</mask>
<g mask="url(#mask0_185_43588)">
<path d="M21.0231 12.2261L26.0881 0H35.7015L42.0444 37.3631H32.3804L29.1607 15.8575L22.7326 29.6689H21.0231H19.3118L12.8838 15.8575L9.6641 37.3631H0L6.34303 0H15.9565L21.0231 12.2261Z" fill="#0047BA"/>
<path d="M64.6122 11.9434H73.6307V37.3631H64.6122V34.539C62.6966 36.9513 60.1028 38.1557 56.8325 38.1557C54.9824 38.1557 53.2809 37.8174 51.7283 37.1392C50.1757 36.4625 48.8207 35.5131 47.6653 34.289C46.5082 33.0682 45.6091 31.63 44.9652 29.9777C44.3213 28.3254 43.9994 26.5261 43.9994 24.5764C43.9994 22.7606 44.3131 21.0332 44.9408 19.3989C45.5667 17.7631 46.4428 16.3347 47.5672 15.1123C48.6899 13.8914 50.0286 12.9239 51.5812 12.213C53.1339 11.5038 54.8517 11.1491 56.7344 11.1491C59.9067 11.1491 62.5332 12.2555 64.6138 14.4683V11.9417L64.6122 11.9434ZM53.3137 24.5797C53.3137 25.4066 53.4624 26.1748 53.7599 26.884C54.0574 27.5949 54.461 28.2143 54.9742 28.7422C55.4858 29.2717 56.097 29.6835 56.8079 29.9809C57.519 30.2784 58.2855 30.4272 59.1124 30.4272C59.9395 30.4272 60.6554 30.2784 61.3663 29.9809C62.0756 29.6835 62.6868 29.2701 63.2 28.7422C63.7132 28.2143 64.125 27.6015 64.4389 26.9085C64.7528 26.2156 64.9113 25.4703 64.9113 24.6777C64.9113 23.8851 64.7528 23.135 64.4389 22.4241C64.125 21.7148 63.7132 21.0937 63.2 20.5659C62.6886 20.0379 62.0756 19.6245 61.3663 19.327C60.6554 19.0296 59.9051 18.8809 59.1124 18.8809C58.3197 18.8809 57.519 19.0296 56.8079 19.327C56.097 19.6245 55.4858 20.0379 54.9742 20.5659C54.461 21.0937 54.0574 21.6968 53.7599 22.375C53.4624 23.0516 53.3137 23.787 53.3137 24.5797Z" fill="#0047BA"/>
<path d="M97.195 20.1687C95.6422 19.1129 94.0732 18.5835 92.4879 18.5835C91.6282 18.5835 90.8273 18.7321 90.0838 19.0296C89.3401 19.327 88.688 19.7487 88.1258 20.2929C87.5636 20.8371 87.1272 21.4827 86.8133 22.2246C86.4978 22.9683 86.3427 23.8034 86.3427 24.7268C86.3427 25.6502 86.4996 26.4362 86.8133 27.1799C87.1272 27.9234 87.557 28.5674 88.1012 29.1116C88.6472 29.6558 89.2975 30.0775 90.0592 30.3749C90.8191 30.6724 91.6282 30.821 92.4879 30.821C94.173 30.821 95.7404 30.2425 97.195 29.087V36.7175C94.9821 37.6752 92.8835 38.1541 90.9009 38.1541C89.0508 38.1541 87.2905 37.8402 85.6236 37.2127C83.9548 36.5867 82.4838 35.6846 81.2123 34.5128C79.9408 33.341 78.9242 31.9357 78.1659 30.3012C77.4058 28.6653 77.0266 26.8416 77.0266 24.8265C77.0266 22.8113 77.3894 20.9695 78.1168 19.301C78.8425 17.6323 79.8345 16.1957 81.0898 14.9897C82.3449 13.7836 83.8405 12.8422 85.5744 12.164C87.3085 11.4874 89.1668 11.1491 91.1494 11.1491C93.3296 11.1491 95.3448 11.6116 97.195 12.5366V20.1671V20.1687Z" fill="#0047BA"/>
<path d="M101.302 11.9434H110.272V16.1059C111.23 14.5876 112.403 13.4224 113.791 12.6134C115.178 11.8045 116.796 11.3991 118.646 11.3991H119.415C119.696 11.3991 120.016 11.4335 120.381 11.4988V20.0723C119.191 19.4774 117.903 19.18 116.515 19.18C114.433 19.18 112.872 19.7993 111.833 21.0382C110.792 22.2769 110.272 24.086 110.272 26.464V37.3663H101.302V11.9434Z" fill="#0047BA"/>
<path d="M123.033 24.4293C123.033 22.5465 123.412 20.7864 124.172 19.1522C124.931 17.5163 125.988 16.0977 127.343 14.8916C128.698 13.6855 130.308 12.736 132.174 12.043C134.041 11.3485 136.08 11.002 138.295 11.002C140.51 11.002 142.499 11.3403 144.365 12.0185C146.232 12.6951 147.85 13.6365 149.221 14.8426C150.592 16.0487 151.658 17.4868 152.418 19.1538C153.178 20.8225 153.557 22.6643 153.557 24.6793C153.557 26.6944 153.168 28.5363 152.392 30.2049C151.614 31.8734 150.55 33.31 149.195 34.5162C147.84 35.7222 146.214 36.6554 144.313 37.3156C142.414 37.9758 140.356 38.3059 138.143 38.3059C135.93 38.3059 133.948 37.9758 132.097 37.3156C130.247 36.6554 128.654 35.714 127.315 34.4916C125.978 33.2691 124.927 31.8081 124.169 30.1067C123.409 28.4055 123.03 26.5131 123.03 24.4326M132.495 24.5307C132.495 25.3902 132.652 26.1748 132.965 26.884C133.279 27.5949 133.693 28.2143 134.204 28.7422C134.716 29.2717 135.327 29.6835 136.038 29.9809C136.749 30.2784 137.501 30.4272 138.293 30.4272C139.086 30.4272 139.836 30.2784 140.547 29.9809C141.257 29.6835 141.868 29.2701 142.381 28.7422C142.894 28.2143 143.306 27.5949 143.62 26.884C143.934 26.173 144.091 25.4066 144.091 24.5796C144.091 23.7527 143.934 23.0368 143.62 22.326C143.306 21.6151 142.892 20.9973 142.381 20.4678C141.869 19.9399 141.258 19.5265 140.547 19.2291C139.836 18.9316 139.086 18.7828 138.293 18.7828C137.501 18.7828 136.749 18.9298 136.038 19.2291C135.327 19.5265 134.716 19.9399 134.204 20.4678C133.691 20.9973 133.279 21.6069 132.965 22.3015C132.652 22.9944 132.495 23.7379 132.495 24.5307Z" fill="#0047BA"/>
<path d="M165.829 50.0483H156.86V11.9434H165.829V14.7674C167.746 12.3568 170.356 11.1507 173.66 11.1507C175.478 11.1507 177.171 11.507 178.739 12.2163C180.308 12.9272 181.672 13.8931 182.827 15.1155C183.985 16.3379 184.884 17.7761 185.528 19.4268C186.172 21.0791 186.495 22.8457 186.495 24.7284C186.495 26.611 186.172 28.3631 185.528 29.9809C184.884 31.599 183.993 33.0207 182.852 34.2416C181.712 35.464 180.366 36.4217 178.813 37.1163C177.261 37.8108 175.574 38.1573 173.758 38.1573C170.585 38.1573 167.943 37.0672 165.828 34.8871V50.0501L165.829 50.0483ZM177.128 24.7268C177.128 23.9342 176.988 23.184 176.708 22.473C176.427 21.7621 176.021 21.1428 175.494 20.6149C174.964 20.087 174.346 19.6653 173.636 19.3516C172.924 19.0378 172.156 18.8809 171.331 18.8809C170.505 18.8809 169.795 19.0296 169.1 19.327C168.407 19.6245 167.803 20.0379 167.293 20.5659C166.779 21.0937 166.366 21.713 166.054 22.4241C165.739 23.135 165.582 23.8851 165.582 24.6777C165.582 25.4703 165.73 26.214 166.028 26.9069C166.326 27.5997 166.74 28.2045 167.268 28.716C167.795 29.2292 168.415 29.641 169.125 29.9549C169.837 30.2686 170.587 30.4254 171.382 30.4254C172.176 30.4254 172.918 30.2768 173.612 29.9793C174.304 29.6819 174.906 29.2684 175.42 28.7405C175.931 28.2127 176.345 27.6015 176.659 26.9069C176.973 26.214 177.128 25.4867 177.128 24.7268Z" fill="#0047BA"/>
<path d="M210.367 11.9434H219.388V37.3631H210.367V34.539C208.453 36.9513 205.859 38.1557 202.588 38.1557C200.738 38.1557 199.037 37.8174 197.484 37.1392C195.932 36.4625 194.576 35.5131 193.421 34.289C192.263 33.0682 191.365 31.63 190.721 29.9777C190.077 28.3254 189.754 26.5261 189.754 24.5764C189.754 22.7606 190.069 21.0332 190.697 19.3989C191.322 17.7631 192.199 16.3347 193.323 15.1123C194.446 13.8914 195.784 12.9239 197.337 12.213C198.889 11.5038 200.608 11.1491 202.49 11.1491C205.663 11.1491 208.289 12.2555 210.369 14.4683V11.9417L210.367 11.9434ZM199.069 24.5797C199.069 25.4066 199.218 26.1748 199.516 26.884C199.813 27.5949 200.217 28.2143 200.728 28.7422C201.241 29.2717 201.851 29.6835 202.563 29.9809C203.271 30.2784 204.04 30.4272 204.866 30.4272C205.693 30.4272 206.411 30.2784 207.123 29.9809C207.831 29.6835 208.443 29.2701 208.955 28.7422C209.468 28.2143 209.881 27.6015 210.195 26.9085C210.509 26.2156 210.666 25.4703 210.666 24.6777C210.666 23.8851 210.509 23.135 210.195 22.4241C209.881 21.7148 209.468 21.0937 208.955 20.5659C208.443 20.0379 207.831 19.6245 207.123 19.327C206.411 19.0296 205.659 18.8809 204.866 18.8809C204.074 18.8809 203.271 19.0296 202.563 19.327C201.851 19.6245 201.241 20.0379 200.728 20.5659C200.217 21.0937 199.811 21.6968 199.516 22.375C199.218 23.0516 199.069 23.787 199.069 24.5797Z" fill="#0047BA"/>
<path d="M235.195 33.8951L222.906 11.9434H233.311L240.101 24.9752L246.693 11.9434H257L236.583 50.0483H226.521L235.195 33.8951Z" fill="#0047BA"/>
<path d="M208.247 47.2865C208.247 45.1357 206.503 43.3936 204.354 43.3936C203.276 43.3936 202.301 43.8315 201.596 44.5392C201.591 44.5441 201.588 44.5506 201.583 44.5556C201.575 44.5638 201.567 44.5736 201.559 44.5832C201.546 44.5964 201.535 44.6095 201.523 44.6209C201.506 44.6373 201.491 44.6535 201.475 44.6699C201.456 44.6896 201.437 44.7092 201.416 44.7288C201.393 44.7517 201.369 44.7729 201.347 44.7973C201.318 44.8236 201.29 44.848 201.265 44.8742C201.233 44.9037 201.2 44.9297 201.172 44.9608C201.136 44.9935 201.099 45.0213 201.067 45.0539C201.029 45.0884 200.987 45.1176 200.95 45.1553C200.945 45.1603 200.94 45.1635 200.935 45.1667C200.878 45.206 200.829 45.2566 200.773 45.2991C200.711 45.3416 200.654 45.3939 200.595 45.4397C200.527 45.4838 200.466 45.5361 200.404 45.5835C200.333 45.6292 200.269 45.6815 200.2 45.7306C200.128 45.778 200.058 45.8287 199.988 45.881C199.911 45.93 199.837 45.9805 199.764 46.0346C199.684 46.0853 199.605 46.1342 199.528 46.1898C199.445 46.2405 199.361 46.2896 199.283 46.3467C199.198 46.399 199.109 46.4464 199.027 46.5035C198.937 46.5558 198.846 46.6017 198.761 46.6605C198.669 46.7128 198.571 46.7569 198.484 46.8158C198.393 46.855 198.311 46.9105 198.224 46.9562C198.113 47.0021 198.014 47.0642 197.908 47.1197C197.794 47.1655 197.688 47.226 197.58 47.2815C197.463 47.3273 197.355 47.3845 197.244 47.4401C197.124 47.4858 197.01 47.5397 196.896 47.5954C196.774 47.6394 196.653 47.6901 196.538 47.7472C196.412 47.7915 196.289 47.8387 196.17 47.8944C196.041 47.9385 195.913 47.981 195.792 48.0366C195.661 48.0791 195.527 48.1166 195.404 48.1738C195.269 48.2147 195.132 48.249 195.005 48.3046C194.957 48.3177 194.91 48.3323 194.862 48.3487C194.716 48.3781 194.576 48.432 194.435 48.4779C194.284 48.5056 194.141 48.5546 193.996 48.6003C193.842 48.6265 193.696 48.6706 193.548 48.7148C193.391 48.7393 193.242 48.7769 193.091 48.821C192.93 48.8439 192.776 48.8765 192.623 48.9174C192.459 48.9386 192.302 48.9648 192.146 49.0041C191.981 49.0221 191.818 49.0433 191.659 49.0808C191.491 49.0972 191.322 49.1103 191.16 49.1479C190.99 49.1609 190.818 49.1691 190.652 49.2034C190.543 49.21 190.437 49.2214 190.331 49.2361C190.315 49.2361 190.302 49.2312 190.289 49.2312C190.119 49.2312 189.958 49.2607 189.793 49.2819C189.756 49.2819 189.722 49.2705 189.687 49.2705C189.536 49.2705 189.393 49.2982 189.245 49.3146C189.186 49.3114 189.13 49.2966 189.07 49.2966C188.94 49.2966 188.815 49.3228 188.688 49.3358C188.604 49.331 188.526 49.3113 188.44 49.3113C188.331 49.3113 188.228 49.3342 188.122 49.344C188.015 49.3358 187.912 49.3113 187.801 49.3113C187.718 49.3113 187.639 49.331 187.555 49.3358C187.427 49.3228 187.303 49.2966 187.173 49.2966C187.112 49.2966 187.056 49.3114 186.996 49.3146C186.849 49.2982 186.707 49.2705 186.555 49.2705C186.519 49.2705 186.484 49.2803 186.447 49.2819C186.282 49.2607 186.119 49.2312 185.951 49.2312C185.935 49.2312 185.923 49.2361 185.909 49.2361C185.803 49.2214 185.695 49.21 185.586 49.2034C185.422 49.1691 185.249 49.1609 185.077 49.1479C184.916 49.1103 184.748 49.0972 184.579 49.0808C184.42 49.0416 184.256 49.0221 184.092 49.0041C183.937 48.9632 183.776 48.937 183.615 48.9174C183.461 48.8749 183.307 48.8439 183.148 48.821C182.997 48.7785 182.846 48.7393 182.69 48.7148C182.542 48.6706 182.396 48.6265 182.242 48.6003C182.097 48.5546 181.956 48.5072 181.803 48.4779C181.662 48.432 181.524 48.3781 181.376 48.3487C181.328 48.3323 181.283 48.3193 181.233 48.3046C181.106 48.249 180.968 48.2147 180.835 48.1738C180.71 48.1183 180.576 48.0791 180.446 48.0366C180.322 47.981 180.196 47.9385 180.069 47.8944C179.948 47.8387 179.826 47.7915 179.701 47.7472C179.584 47.6901 179.465 47.641 179.343 47.5954C179.229 47.5397 179.115 47.4858 178.994 47.4401C178.883 47.3845 178.774 47.3273 178.657 47.2815C178.549 47.226 178.443 47.1655 178.331 47.1197C178.226 47.0642 178.125 47.0021 178.014 46.9562C177.928 46.9105 177.846 46.855 177.754 46.8158C177.667 46.7569 177.569 46.7128 177.478 46.6605C177.393 46.6017 177.301 46.5558 177.211 46.5035C177.129 46.4448 177.041 46.3974 176.954 46.3467C176.875 46.2896 176.792 46.2405 176.71 46.1898C176.635 46.1342 176.556 46.0853 176.475 46.0346C176.402 45.9805 176.329 45.93 176.252 45.881C176.182 45.8287 176.112 45.778 176.039 45.7306C175.973 45.6799 175.907 45.6276 175.836 45.5835C175.774 45.5345 175.713 45.4822 175.645 45.4397C175.584 45.3939 175.529 45.3416 175.464 45.2991C175.409 45.2566 175.359 45.206 175.303 45.1667C175.296 45.1619 175.292 45.1585 175.287 45.1537C175.252 45.1176 175.21 45.0884 175.171 45.0523C175.139 45.0197 175.101 44.9918 175.067 44.9592C175.038 44.9297 175.004 44.9019 174.974 44.8726C174.948 44.8464 174.917 44.822 174.892 44.7957C174.869 44.7729 174.845 44.7501 174.821 44.7271C174.802 44.7076 174.783 44.688 174.763 44.6683C174.747 44.6519 174.731 44.6357 174.715 44.6193C174.702 44.6062 174.691 44.593 174.68 44.5816C174.672 44.5736 174.664 44.5638 174.656 44.554C174.651 44.549 174.648 44.5424 174.641 44.5392C173.938 43.8315 172.961 43.3936 171.885 43.3936C169.734 43.3936 167.991 45.1357 167.991 47.2865C167.991 48.3617 168.428 49.3358 169.133 50.0402C169.137 50.0451 169.143 50.0483 169.146 50.0517C169.154 50.0599 169.164 50.0695 169.172 50.0777C169.185 50.0909 169.198 50.104 169.212 50.1186C169.23 50.1366 169.249 50.1546 169.267 50.1709C169.289 50.1939 169.312 50.2151 169.336 50.238C169.361 50.2658 169.39 50.2902 169.418 50.3163C169.45 50.3475 169.483 50.3752 169.516 50.4062C169.551 50.4423 169.589 50.4733 169.626 50.5076C169.665 50.5484 169.712 50.5811 169.752 50.6203C169.797 50.6644 169.845 50.7005 169.891 50.7429C169.938 50.7904 169.996 50.8295 170.044 50.8753C170.222 51.055 170.418 51.2185 170.629 51.3607C170.688 51.4047 170.741 51.4572 170.802 51.4979C170.866 51.5453 170.924 51.601 170.99 51.6435C171.059 51.6941 171.122 51.7497 171.193 51.7971C171.265 51.851 171.334 51.9081 171.411 51.9572C171.488 52.0144 171.562 52.0715 171.642 52.1238C171.723 52.1843 171.803 52.2416 171.89 52.2955C171.975 52.3576 172.062 52.4165 172.151 52.472C172.241 52.5374 172.333 52.5961 172.428 52.6534C172.521 52.7203 172.619 52.7792 172.718 52.8381C172.816 52.9084 172.919 52.9655 173.024 53.0276C173.125 53.0995 173.234 53.1568 173.345 53.2189C173.451 53.2924 173.565 53.3497 173.679 53.4134C173.893 53.5604 174.122 53.688 174.365 53.7909C174.484 53.8546 174.598 53.9249 174.721 53.9772C174.845 54.0425 174.964 54.1112 175.093 54.1635C175.219 54.2304 175.345 54.2975 175.478 54.3498C175.61 54.4185 175.741 54.4822 175.881 54.5345C176.016 54.6032 176.154 54.6652 176.297 54.7175C176.439 54.7878 176.58 54.8465 176.729 54.899C176.872 54.9691 177.022 55.0264 177.176 55.0787C177.324 55.149 177.479 55.2045 177.638 55.2552C177.791 55.3255 177.952 55.3777 178.115 55.4284C178.271 55.4987 178.44 55.5478 178.607 55.5967C178.854 55.703 179.111 55.7863 179.381 55.8402C179.55 55.8975 179.719 55.953 179.897 55.9857C180.07 56.0413 180.242 56.0936 180.425 56.1247C180.604 56.1802 180.783 56.2276 180.97 56.2571C181.153 56.3126 181.338 56.355 181.53 56.3829C181.718 56.4367 181.908 56.476 182.105 56.5004C182.297 56.5529 182.496 56.5872 182.698 56.61C182.894 56.6607 183.096 56.6901 183.304 56.7097C183.504 56.7588 183.715 56.7849 183.925 56.8013C184.131 56.8486 184.345 56.8698 184.561 56.8812C184.822 56.9369 185.09 56.9663 185.366 56.9663C185.382 56.9663 185.395 56.963 185.408 56.9613C185.589 56.9876 185.769 57.017 185.959 57.017C185.994 57.017 186.028 57.0072 186.066 57.0056C186.232 57.0268 186.392 57.0563 186.563 57.0563C186.624 57.0563 186.678 57.0415 186.738 57.0382C186.886 57.0545 187.027 57.0823 187.18 57.0823C187.265 57.0823 187.343 57.0627 187.425 57.0579C187.554 57.0709 187.677 57.097 187.809 57.097C187.918 57.097 188.021 57.0741 188.129 57.0643C188.236 57.0741 188.338 57.097 188.447 57.097C188.579 57.097 188.702 57.0709 188.829 57.0579C188.913 57.0627 188.991 57.0823 189.077 57.0823C189.228 57.0823 189.37 57.0545 189.518 57.0382C189.576 57.0415 189.634 57.0563 189.693 57.0563C189.864 57.0563 190.024 57.0268 190.19 57.0056C190.225 57.0056 190.26 57.017 190.297 57.017C190.485 57.017 190.667 56.9876 190.848 56.9613C190.863 56.9613 190.876 56.9663 190.89 56.9663C191.166 56.9663 191.434 56.9353 191.695 56.8812C191.913 56.8682 192.127 56.847 192.332 56.8013C192.544 56.7849 192.753 56.7588 192.954 56.7097C193.161 56.6901 193.362 56.6607 193.56 56.61C193.762 56.5872 193.958 56.5529 194.152 56.5004C194.35 56.4744 194.541 56.4367 194.727 56.3829C194.92 56.355 195.105 56.3126 195.288 56.2571C195.476 56.2276 195.656 56.1802 195.832 56.1247C196.014 56.0936 196.187 56.0413 196.361 55.9857C196.539 55.9514 196.708 55.8959 196.876 55.8402C197.146 55.7863 197.403 55.703 197.651 55.5967C197.819 55.5478 197.986 55.4987 198.142 55.4284C198.306 55.3777 198.467 55.3271 198.619 55.2552C198.778 55.2045 198.934 55.149 199.082 55.0787C199.236 55.0264 199.385 54.9691 199.528 54.899C199.678 54.8465 199.821 54.7862 199.96 54.7175C200.103 54.6652 200.242 54.6032 200.376 54.5345C200.516 54.4822 200.648 54.4169 200.78 54.3498C200.913 54.2975 201.038 54.2304 201.165 54.1635C201.294 54.1112 201.413 54.0425 201.536 53.9772C201.661 53.9249 201.774 53.8546 201.891 53.7909C202.135 53.688 202.362 53.5604 202.579 53.4134C202.691 53.3497 202.807 53.2924 202.911 53.2189C203.02 53.1568 203.131 53.0995 203.232 53.0276C203.337 52.9673 203.44 52.9084 203.538 52.8381C203.637 52.7792 203.735 52.7203 203.828 52.6534C203.923 52.5961 204.015 52.5374 204.105 52.472C204.195 52.4165 204.281 52.3576 204.366 52.2955C204.452 52.2416 204.532 52.1843 204.614 52.1238C204.692 52.0732 204.768 52.0144 204.845 51.9572C204.921 51.9081 204.99 51.851 205.062 51.7971C205.134 51.7497 205.197 51.6958 205.266 51.6435C205.332 51.5992 205.39 51.5453 205.454 51.4979C205.515 51.4572 205.568 51.4047 205.626 51.3607C205.838 51.2185 206.034 51.055 206.212 50.8753C206.262 50.8295 206.318 50.792 206.365 50.7429C206.411 50.7005 206.459 50.6644 206.504 50.6203C206.544 50.5827 206.591 50.5484 206.63 50.5076C206.667 50.4733 206.705 50.4423 206.74 50.4062C206.774 50.3752 206.806 50.3475 206.837 50.3163C206.866 50.2902 206.893 50.2658 206.92 50.238C206.944 50.2151 206.967 50.1939 206.989 50.1709C207.007 50.153 207.025 50.1366 207.044 50.1186C207.057 50.1056 207.07 50.0925 207.084 50.0777C207.092 50.0695 207.1 50.0615 207.11 50.0517C207.115 50.0483 207.118 50.0435 207.123 50.0402C207.828 49.3358 208.265 48.3617 208.265 47.2847" fill="#0047BA"/>
</g>
<path d="M2.50584 65.9565H7.51734V57.0765H16.9943V52.4435H7.51734V47.8104H17.7653V43.1774H2.50584V65.9565Z" fill="#52C41A"/>
<path d="M21.4523 65.9565H26.271V50.32H21.4523V65.9565ZM21.0668 45.3974C21.0668 46.9417 22.3196 48.1965 23.8616 48.1965C25.4036 48.1965 26.6565 46.9417 26.6565 45.3974C26.6565 43.853 25.4036 42.5983 23.8616 42.5983C22.3196 42.5983 21.0668 43.853 21.0668 45.3974Z" fill="#52C41A"/>
<path d="M30.3755 65.9565H35.1942V58.1704C35.1942 56.1435 35.5797 54.1809 38.0855 54.1809C40.5591 54.1809 40.5912 56.4974 40.5912 58.2991V65.9565H45.41V57.3339C45.41 53.1513 44.5105 49.9339 39.6275 49.9339C37.2823 49.9339 35.7082 51.2209 35.0657 52.4435H35.0015V50.32H30.3755V65.9565Z" fill="#52C41A"/>
<path d="M59.2629 65.9565H63.6962V58.0096C63.6962 52.7974 62.1863 49.9339 56.5644 49.9339C54.0265 49.9339 51.4565 50.7704 49.6897 52.4435L52.2597 55.0817C53.2877 53.9235 54.6048 53.2157 56.1789 53.2157C57.8494 53.2157 59.2629 54.3096 59.2629 56.0148C55.2473 56.0148 48.6938 56.1113 48.6938 61.5165C48.6938 64.6696 51.328 66.3426 54.2514 66.3426C56.211 66.3426 58.1385 65.667 59.1987 63.9939H59.2629V65.9565ZM59.2629 59.1035V60.133C59.2629 62.0635 57.496 63.0609 55.6007 63.0609C54.5405 63.0609 53.3198 62.5139 53.3198 61.3557C53.3198 59.2322 56.5965 59.1035 58.0743 59.1035H59.2629Z" fill="#52C41A"/>
<path d="M67.362 65.9565H72.1807V58.1704C72.1807 56.1435 72.5662 54.1809 75.072 54.1809C77.5456 54.1809 77.5777 56.4974 77.5777 58.2991V65.9565H82.3965V57.3339C82.3965 53.1513 81.497 49.9339 76.614 49.9339C74.2688 49.9339 72.6947 51.2209 72.0522 52.4435H71.988V50.32H67.362V65.9565Z" fill="#52C41A"/>
<path d="M100.201 52.0252C98.6909 50.4809 96.4743 49.9339 94.6431 49.9339C89.8244 49.9339 85.9694 53.1513 85.9694 58.1383C85.9694 63.1252 89.8244 66.3426 94.6431 66.3426C96.4743 66.3426 98.6909 65.7956 100.201 64.2513L97.0204 60.9052C96.4743 61.5487 95.7033 62.0956 94.6431 62.0956C92.2338 62.0956 90.7881 60.487 90.7881 58.1383C90.7881 55.7896 92.2338 54.1809 94.6431 54.1809C95.639 54.1809 96.5385 54.6956 97.0204 55.3713L100.201 52.0252Z" fill="#52C41A"/>
<path d="M102.656 65.9565H107.475V50.32H102.656V65.9565ZM102.27 45.3974C102.27 46.9417 103.523 48.1965 105.065 48.1965C106.607 48.1965 107.86 46.9417 107.86 45.3974C107.86 43.853 106.607 42.5983 105.065 42.5983C103.523 42.5983 102.27 43.853 102.27 45.3974Z" fill="#52C41A"/>
<path d="M111.579 65.9565H116.398V58.1704C116.398 56.1435 116.783 54.1809 119.289 54.1809C121.763 54.1809 121.795 56.4974 121.795 58.2991V65.9565H126.613V57.3339C126.613 53.1513 125.714 49.9339 120.831 49.9339C118.486 49.9339 116.912 51.2209 116.269 52.4435H116.205V50.32H111.579V65.9565Z" fill="#52C41A"/>
<path d="M147.052 50.32H142.619V52.3791H142.555C141.816 51.253 139.952 49.9339 137.222 49.9339C132.789 49.9339 130.09 53.9235 130.09 58.0739C130.09 62.8035 133.142 66.1496 137.768 66.1496C139.214 66.1496 141.077 65.6026 142.169 64.0904H142.233V65.6026C142.233 67.8226 140.852 69.4313 137.929 69.4313C135.969 69.4313 134.331 68.6591 132.853 67.4044L130.186 71.3939C132.435 73.1957 135.262 73.6783 138.025 73.6783C144.064 73.6783 147.052 70.5252 147.052 64.6374V50.32ZM134.909 58.0417C134.909 56.0148 136.579 54.1809 138.764 54.1809C140.948 54.1809 142.619 56.0148 142.619 58.0417C142.619 60.0687 140.948 61.9026 138.764 61.9026C136.579 61.9026 134.909 60.0687 134.909 58.0417Z" fill="#52C41A"/>
</g>
<defs>
<clipPath id="clip0_185_43588">
<rect width="257" height="74" fill="white"/>
</clipPath>
</defs>
</svg>
