<svg width="30" height="20" viewBox="0 0 30 20" fill="none" xmlns="http://www.w3.org/2000/svg">
<g clip-path="url(#clip0_552_6678)">
<path d="M1.64674 0H28.3478C29.2554 0 29.9946 0.708333 29.9946 1.57813V18.4167C29.9946 19.2865 29.2554 19.9948 28.3478 19.9948H1.64674C0.73913 20 0 19.2917 0 18.4219V1.57813C0 0.708333 0.73913 0 1.64674 0Z" fill="#B22234"/>
<path d="M0.0108696 1.42188H29.9946C30 1.47396 30.0054 1.52604 30.0054 1.58333V3.11458H0V1.57812C0 1.52604 0.00543478 1.47396 0.0108696 1.42188ZM30 4.51562V6.20312H0V4.51562H30ZM30 7.60937V9.29688H0V7.60937H30ZM30 10.7031V12.3906H0V10.7031H30ZM30 13.7969V15.4844H0V13.7969H30ZM30 16.8906V18.4167C30 18.4688 29.9946 18.526 29.9891 18.5781H0.0108696C0.00543478 18.5312 0 18.474 0 18.4219V16.8958H30V16.8906Z" fill="white"/>
<path d="M11.3043 0V10.7708H0V1.57812C0 0.708333 0.73913 0 1.64674 0H11.3043Z" fill="#3C3B6E"/>
<path d="M0.668452 1.48958L1.04345 2.60937L0.0543213 1.91666H1.28258L0.288017 2.60937L0.668452 1.48958Z" fill="white"/>
<path d="M0.668452 3.65625L1.04345 4.77604L0.0543213 4.08333H1.28258L0.288017 4.77604L0.668452 3.65625Z" fill="white"/>
<path d="M0.668452 5.82292L1.04345 6.94271L0.0543213 6.25H1.28258L0.288017 6.94271L0.668452 5.82292Z" fill="white"/>
<path d="M0.668452 7.98958L1.04345 9.10937L0.0543213 8.41666H1.28258L0.288017 9.10937L0.668452 7.98958Z" fill="white"/>
<path d="M1.99462 0.40625L2.37506 1.52604L1.38049 0.833333H2.61419L1.61419 1.52604L1.99462 0.40625Z" fill="white"/>
<path d="M1.99462 2.57292L2.37506 3.69271L1.38049 3.00001H2.61419L1.61419 3.69271L1.99462 2.57292Z" fill="white"/>
<path d="M1.99462 4.73958L2.37506 5.85937L1.38049 5.16666H2.61419L1.61419 5.85937L1.99462 4.73958Z" fill="white"/>
<path d="M1.99462 6.90625L2.37506 8.02604L1.38049 7.33333H2.61419L1.61419 8.02604L1.99462 6.90625Z" fill="white"/>
<path d="M1.99462 9.07292L2.37506 10.1927L1.38049 9.5H2.61419L1.61419 10.1927L1.99462 9.07292Z" fill="white"/>
<path d="M3.32604 1.48958L3.70648 2.60937L2.71191 1.91666H3.94018L2.94561 2.60937L3.32604 1.48958Z" fill="white"/>
<path d="M3.32604 3.65625L3.70648 4.77604L2.71191 4.08333H3.94018L2.94561 4.77604L3.32604 3.65625Z" fill="white"/>
<path d="M3.32604 5.82292L3.70648 6.94271L2.71191 6.25H3.94018L2.94561 6.94271L3.32604 5.82292Z" fill="white"/>
<path d="M3.32604 7.98958L3.70648 9.10937L2.71191 8.41666H3.94018L2.94561 9.10937L3.32604 7.98958Z" fill="white"/>
<path d="M4.65759 0.40625L5.03259 1.52604L4.04346 0.833333H5.27172L4.27715 1.52604L4.65759 0.40625Z" fill="white"/>
<path d="M4.65759 2.57292L5.03259 3.69271L4.04346 3.00001H5.27172L4.27715 3.69271L4.65759 2.57292Z" fill="white"/>
<path d="M4.65759 4.73958L5.03259 5.85937L4.04346 5.16666H5.27172L4.27715 5.85937L4.65759 4.73958Z" fill="white"/>
<path d="M4.65759 6.90625L5.03259 8.02604L4.04346 7.33333H5.27172L4.27715 8.02604L4.65759 6.90625Z" fill="white"/>
<path d="M4.65759 9.07292L5.03259 10.1927L4.04346 9.5H5.27172L4.27715 10.1927L4.65759 9.07292Z" fill="white"/>
<path d="M5.98364 1.48958L6.36407 2.60937L5.36951 1.91666H6.59777L5.6032 2.60937L5.98364 1.48958Z" fill="white"/>
<path d="M5.98364 3.65625L6.36407 4.77604L5.36951 4.08333H6.59777L5.6032 4.77604L5.98364 3.65625Z" fill="white"/>
<path d="M5.98364 5.82292L6.36407 6.94271L5.36951 6.25H6.59777L5.6032 6.94271L5.98364 5.82292Z" fill="white"/>
<path d="M5.98364 7.98958L6.36407 9.10937L5.36951 8.41666H6.59777L5.6032 9.10937L5.98364 7.98958Z" fill="white"/>
<path d="M7.31518 0.40625L7.69561 1.52604L6.70105 0.833333H7.92931L6.93475 1.52604L7.31518 0.40625Z" fill="white"/>
<path d="M7.31518 2.57292L7.69561 3.69271L6.70105 3.00001H7.92931L6.93475 3.69271L7.31518 2.57292Z" fill="white"/>
<path d="M7.31518 4.73958L7.69561 5.85937L6.70105 5.16666H7.92931L6.93475 5.85937L7.31518 4.73958Z" fill="white"/>
<path d="M7.31518 6.90625L7.69561 8.02604L6.70105 7.33333H7.92931L6.93475 8.02604L7.31518 6.90625Z" fill="white"/>
<path d="M7.31518 9.07292L7.69561 10.1927L6.70105 9.5H7.92931L6.93475 10.1927L7.31518 9.07292Z" fill="white"/>
<path d="M8.64135 1.48958L9.02179 2.60937L8.02722 1.91666H9.25548L8.26635 2.60937L8.64135 1.48958Z" fill="white"/>
<path d="M8.64135 3.65625L9.02179 4.77604L8.02722 4.08333H9.25548L8.26635 4.77604L8.64135 3.65625Z" fill="white"/>
<path d="M8.64135 5.82292L9.02179 6.94271L8.02722 6.25H9.25548L8.26635 6.94271L8.64135 5.82292Z" fill="white"/>
<path d="M8.64135 7.98958L9.02179 9.10937L8.02722 8.41666H9.25548L8.26635 9.10937L8.64135 7.98958Z" fill="white"/>
<path d="M9.97277 0.40625L10.3532 1.52604L9.35864 0.833333H10.5869L9.59234 1.52604L9.97277 0.40625Z" fill="white"/>
<path d="M9.97277 2.57292L10.3532 3.69271L9.35864 3.00001H10.5869L9.59234 3.69271L9.97277 2.57292Z" fill="white"/>
<path d="M9.97277 4.73958L10.3532 5.85937L9.35864 5.16666H10.5869L9.59234 5.85937L9.97277 4.73958Z" fill="white"/>
<path d="M9.97277 6.90625L10.3532 8.02604L9.35864 7.33333H10.5869L9.59234 8.02604L9.97277 6.90625Z" fill="white"/>
<path d="M9.97277 9.07292L10.3532 10.1927L9.35864 9.5H10.5869L9.59234 10.1927L9.97277 9.07292Z" fill="white"/>
</g>
<defs>
<clipPath id="clip0_552_6678">
<rect width="30" height="20" fill="white"/>
</clipPath>
</defs>
</svg>
